<?xml version="1.0" standalone="no"?>
<!DOCTYPE svg PUBLIC "-//W3C//DTD SVG 20010904//EN"
 "http://www.w3.org/TR/2001/REC-SVG-20010904/DTD/svg10.dtd">
<svg version="1.0" xmlns="http://www.w3.org/2000/svg"
 width="303.000000pt" height="303.000000pt" viewBox="0 0 303.000000 303.000000"
 preserveAspectRatio="xMidYMid meet">
<metadata>
Created by potrace 1.14, written by Peter Selinger 2001-2017
</metadata>
<g transform="translate(0.000000,303.000000) scale(0.100000,-0.100000)"
fill="#000000" stroke="none">
<path d="M279 2588 c-9 -32 -5 -37 37 -44 88 -13 148 -75 188 -194 11 -34 117
-389 152 -512 4 -15 21 -17 129 -17 68 -1 126 3 128 7 3 4 -26 113 -64 242
-60 208 -68 242 -66 310 3 115 39 156 141 167 46 5 56 9 56 24 0 18 -15 19
-350 19 -192 0 -350 -1 -351 -2z"/>
<path d="M1244 2573 c2 -12 20 -21 57 -29 72 -16 118 -67 149 -164 28 -87 30
-221 5 -310 -2 -8 -6 -33 -10 -55 -3 -22 -12 -67 -20 -100 -26 -103 -26 -97 3
-93 15 2 27 8 27 13 1 20 58 240 66 255 7 12 9 11 9 -5 1 -11 3 -27 5 -35 8
-38 37 -159 46 -192 l10 -37 122 2 c116 2 122 3 119 22 -2 11 -23 108 -46 215
-52 234 -55 318 -16 395 33 63 64 85 131 92 60 6 62 7 65 28 2 13 -47 15 -361
15 -336 0 -363 -1 -361 -17z"/>
<path d="M2230 2570 c0 -15 7 -20 28 -20 15 0 45 -9 68 -19 62 -28 89 -89 89
-206 0 -49 -3 -108 -7 -130 -5 -22 -10 -54 -13 -71 -3 -17 -23 -93 -44 -168
l-38 -136 28 0 c18 0 29 6 33 18 2 9 14 50 26 91 12 41 23 81 25 90 12 56 93
288 124 356 51 108 80 140 147 162 39 12 54 22 54 35 0 17 -15 18 -260 18
-253 0 -260 -1 -260 -20z"/>
<path d="M395 1646 c-47 -47 -33 -78 62 -140 50 -33 63 -57 43 -81 -28 -33
-83 -14 -117 41 -10 16 -12 13 -12 -26 l-1 -45 64 -3 c73 -3 116 21 116 64 0
40 -16 60 -75 94 -65 37 -82 61 -59 84 34 34 104 2 104 -48 0 -10 3 -17 6 -13
6 5 8 50 5 82 -1 6 -26 11 -56 13 -47 3 -58 0 -80 -22z"/>
<path d="M940 1613 c-50 -123 -90 -203 -101 -203 -19 0 -4 -10 21 -15 13 -2
29 -1 38 4 12 7 12 9 -2 14 -12 5 -13 11 -5 37 6 16 17 31 25 31 45 4 80 5 91
1 16 -5 27 -60 14 -75 -8 -10 1 -13 39 -13 48 0 64 8 37 19 -8 3 -31 45 -51
94 -58 136 -71 162 -77 163 -3 0 -16 -26 -29 -57z m38 -50 c5 -16 13 -36 17
-45 6 -16 1 -18 -34 -16 -23 1 -41 3 -41 4 0 14 34 84 40 84 4 0 13 -12 18
-27z"/>
<path d="M1397 1652 c14 -10 17 -30 18 -115 1 -105 -7 -143 -28 -131 -7 4 -8
3 -4 -2 12 -12 96 -14 104 -1 3 6 1 7 -6 3 -20 -13 -31 42 -22 117 2 13 64 -3
77 -21 12 -15 13 -10 13 33 0 45 -1 48 -14 31 -16 -22 -62 -30 -72 -13 -4 7
-8 29 -9 49 -1 29 3 39 18 44 34 10 84 -5 96 -29 11 -20 11 -19 9 13 l-2 35
-98 0 c-81 0 -94 -2 -80 -13z"/>
<path d="M1932 1653 c-86 -42 -90 -192 -7 -243 96 -59 212 17 201 134 -9 102
-102 154 -194 109z m124 -30 c31 -42 29 -152 -4 -193 -22 -27 -75 -30 -102 -5
-38 34 -49 131 -21 183 28 52 93 59 127 15z"/>
<path d="M2406 1658 c3 -5 9 -6 14 -3 15 9 20 -26 20 -134 0 -102 -1 -108 -22
-118 -18 -8 -12 -10 34 -9 31 1 58 3 60 6 2 3 1 4 -1 3 -15 -9 -31 26 -31 68
0 66 17 64 69 -11 23 -33 45 -60 49 -61 59 -9 96 2 50 15 -29 8 -104 109 -86
115 29 8 48 36 48 67 0 50 -33 67 -130 69 -43 0 -76 -3 -74 -7z m130 -18 c17
0 36 -44 28 -65 -8 -19 -54 -44 -71 -38 -8 3 -13 23 -13 52 0 52 6 65 28 56 7
-3 20 -5 28 -5z"/>
<path d="M850 1188 c0 -6 14 -56 30 -112 17 -56 37 -123 45 -151 148 -502 140
-479 169 -480 14 -1 26 -1 26 1 0 1 7 30 16 63 8 34 17 69 19 78 2 10 16 67
30 127 15 60 28 116 30 125 2 9 20 84 39 166 20 83 39 160 42 173 4 20 1 23
-18 20 -21 -3 -26 -16 -51 -123 -16 -66 -32 -128 -35 -138 -5 -12 -21 29 -48
120 l-41 138 -126 2 c-83 1 -127 -2 -127 -9z"/>
<path d="M1740 1190 c0 -7 49 -216 91 -386 11 -45 21 -90 23 -100 4 -16 32
-137 40 -169 2 -5 6 -27 11 -47 4 -21 11 -39 16 -39 42 -6 44 -4 72 91 143
485 187 638 187 650 0 5 -11 10 -24 10 -20 0 -26 -9 -46 -77 -12 -43 -32 -111
-45 -152 l-22 -74 -18 79 c-9 43 -24 111 -33 149 l-17 70 -117 1 c-65 1 -118
-2 -118 -6z"/>
</g>
</svg>
